<svg xmlns="http://www.w3.org/2000/svg" version="1.1" xmlns:xlink="http://www.w3.org/1999/xlink" xmlns:svgjs="http://svgjs.dev/svgjs" width="1000" height="1000"><g clip-path="url(#SvgjsClipPath1086)"><rect width="1000" height="1000" fill="#ffffff"></rect><g transform="matrix(1.25,0,0,1.25,100,180)"><svg xmlns="http://www.w3.org/2000/svg" version="1.1" xmlns:xlink="http://www.w3.org/1999/xlink" xmlns:svgjs="http://svgjs.dev/svgjs" width="640" height="512"><svg xmlns="http://www.w3.org/2000/svg" viewBox="0 0 640 512"><!--!Font Awesome Free 6.7.2 by @fontawesome - https://fontawesome.com License - https://fontawesome.com/license/free Copyright 2025 Fonticons, Inc.--><path d="M337.8 5.4C327-1.8 313-1.8 302.2 5.4L166.3 96 48 96C21.5 96 0 117.5 0 144L0 464c0 26.5 21.5 48 48 48l208 0 0-96c0-35.3 28.7-64 64-64s64 28.7 64 64l0 96 208 0c26.5 0 48-21.5 48-48l0-320c0-26.5-21.5-48-48-48L473.7 96 337.8 5.4zM96 192l32 0c8.8 0 16 7.2 16 16l0 64c0 8.8-7.2 16-16 16l-32 0c-8.8 0-16-7.2-16-16l0-64c0-8.8 7.2-16 16-16zm400 16c0-8.8 7.2-16 16-16l32 0c8.8 0 16 7.2 16 16l0 64c0 8.8-7.2 16-16 16l-32 0c-8.8 0-16-7.2-16-16l0-64zM96 320l32 0c8.8 0 16 7.2 16 16l0 64c0 8.8-7.2 16-16 16l-32 0c-8.8 0-16-7.2-16-16l0-64c0-8.8 7.2-16 16-16zm400 16c0-8.8 7.2-16 16-16l32 0c8.8 0 16 7.2 16 16l0 64c0 8.8-7.2 16-16 16l-32 0c-8.8 0-16-7.2-16-16l0-64zM232 176a88 88 0 1 1 176 0 88 88 0 1 1 -176 0zm88-48c-8.8 0-16 7.2-16 16l0 32c0 8.8 7.2 16 16 16l32 0c8.8 0 16-7.2 16-16s-7.2-16-16-16l-16 0 0-16c0-8.8-7.2-16-16-16z"></path></svg></svg></g></g><defs><clipPath id="SvgjsClipPath1086"><rect width="1000" height="1000" x="0" y="0" rx="300" ry="300"></rect></clipPath></defs></svg>